<?xml version="1.0" standalone="no"?><!DOCTYPE svg PUBLIC "-//W3C//DTD SVG 1.1//EN" "http://www.w3.org/Graphics/SVG/1.1/DTD/svg11.dtd"><svg t="1586311879198" class="icon" viewBox="0 0 1024 1024" version="1.1" xmlns="http://www.w3.org/2000/svg" p-id="2637" xmlns:xlink="http://www.w3.org/1999/xlink" width="200" height="200"><defs><style type="text/css"></style></defs><path d="M857.8 239.5c-199-63.7-333.4-176.1-342.5-183.8v-0.4s-0.1 0.1-0.3 0.2c-0.2-0.1-0.3-0.2-0.3-0.2v0.4c-9 7.7-143.3 120-342.1 183.7-14.8 4.7-24.9 18.5-24.9 34v294.9c0 41.7 14.8 82 41.8 113.8 70.8 83.3 217.1 242.1 325.2 269.1v0.1c0.1 0 0.2 0 0.3-0.1 0.1 0 0.2 0 0.3 0.1v-0.1C624.1 924 771.6 763.3 841.9 680.4c26.1-30.8 40.4-69.8 40.4-110.2V273.1c0-15.3-9.9-28.9-24.5-33.6z m-51.9 316.8c0 32-11.3 62.9-32 87.3-55.7 65.6-172.5 192.9-258.7 214.4v0.1c-0.1 0-0.1 0-0.2-0.1-0.1 0-0.1 0-0.2 0.1v-0.1c-85.6-21.4-201.4-147.1-257.5-213.1-21.4-25.2-33.1-57.1-33.1-90.1V321.3c0-12.3 8-23.2 19.7-27C401.4 243.9 507.7 155 514.8 148.9v-0.3l0.2 0.2 0.2-0.2v0.3c7.2 6.1 113.6 95.1 271.2 145.6 11.6 3.7 19.4 14.4 19.4 26.6v235.2z" fill="#0C9EEF" p-id="2638"></path><path d="M474.3 634.1l-109.1-98.8c-11.6-10.5-12.5-28.6-2-40.1 10.5-11.6 28.6-12.5 40.1-2L512.4 592c11.6 10.5 12.5 28.6 2 40.1-10.4 11.5-28.5 12.4-40.1 2z" fill="#57C0ED" p-id="2639"></path><path d="M691.9 465.6L513.5 634.1c-11.4 10.7-29.4 10.2-40.2-1.1-10.7-11.4-10.2-29.4 1.1-40.2l178.5-168.5c11.4-10.7 29.4-10.2 40.2 1.1 10.7 11.4 10.2 29.5-1.2 40.2z" fill="#57C0ED" p-id="2640"></path></svg>