<svg t="1588127628240" class="icon" viewBox="0 0 1126 1024" version="1.1" xmlns="http://www.w3.org/2000/svg" p-id="570" width="200" height="200"><path d="M1015.797242 1024H110.300197a110.333815 110.333815 0 0 1-110.216152-110.266579V51.771504A51.687459 51.687459 0 0 1 51.737886 0.168089h2.336441a51.855548 51.855548 0 0 1 33.466579 12.270519L163.046619 70.261326 229.811687 13.447144a51.502561 51.502561 0 0 1 66.933159 0l66.74826 56.814182L430.241366 13.447144a51.502561 51.502561 0 0 1 66.933158 0l66.765069 56.814182L630.687853 13.447144a51.502561 51.502561 0 0 1 66.933158 0l66.74826 56.814182L831.117531 13.447144a51.502561 51.502561 0 0 1 66.933158 0l66.647407 56.646093L1040.775312 12.606697a51.620223 51.620223 0 0 1 85.238083 39.164807v861.961917a110.333815 110.333815 0 0 1-110.216153 110.266579zM100.937623 145.229153v771.025607a6.858043 6.858043 0 0 0 6.90847 6.891662h910.422062a6.874852 6.874852 0 0 0 6.90847-6.891662V147.750492l-23.061852 19.666448a56.612475 56.612475 0 0 1-70.765594 0.16809l-66.765069-56.814183-66.74826 56.814183a51.502561 51.502561 0 0 1-66.933158 0l-66.74826-56.814183-66.74826 56.814183a51.502561 51.502561 0 0 1-66.933158 0l-66.765069-56.814183-66.765069 56.814183a51.485752 51.485752 0 0 1-66.916349 0l-66.74826-56.814183-66.765069 56.814183a51.502561 51.502561 0 0 1-66.933159 0z m133.614183 138.84176h54.34327l55.250952 97.155614 21.851608 45.047931h1.495995a584.816284 584.816284 0 0 1-7.160604-74.967826v-67.235719h50.746159v203.051871H356.685489l-54.948391-97.99606-21.851609-44.375575h-1.479186a742.803414 742.803414 0 0 1 6.858044 74.967827v67.403808h-50.762968V284.070913z m228.113985 0h140.959685v40.50952h-87.507288v37.652003h74.362705v40.845699h-74.362705v43.03086h90.76822v41.013789h-144.237426V284.070913z m166.610112 0h54.662639l14.018648 92.617203 8.959159 64.3782h1.193434c4.185424-21.683519 8.673408-43.367039 13.144583-64.3782l22.708864-92.617203h44.778989l23.297177 92.617203c4.471175 20.674984 8.404465 42.526592 12.842022 64.3782h1.479186c2.706238-21.851609 5.681418-43.367039 8.404465-64.3782l14.338017-92.617203h50.762968l-38.526067 203.051871h-67.235719l-20.019435-88.41497c-3.580302-15.464215-6.572292-31.936967-8.656599-47.233093h-1.462377c-2.706238 15.296126-5.395666 31.768877-8.673408 47.233093l-19.397505 88.41497h-66.008667z m261.227577 369.292186h-655.043992v-83.70847h655.043992v83.70847z m-201.9761 152.288904H235.459488v-84.885096h453.067892v84.885096z" fill="#bfbfbf" p-id="571"></path></svg>
