<svg t="1587523220270" class="icon" viewBox="0 0 1024 1024" version="1.1" xmlns="http://www.w3.org/2000/svg" p-id="4188" width="200" height="200"><path d="M408.874667 555.874133C348.855467 520.170667 308.6336 454.647467 308.6336 379.733333c0-113.109333 91.682133-204.8 204.8-204.8 113.109333 0 204.8 91.690667 204.8 204.8 0 75.899733-41.288533 142.1568-102.634667 177.536 105.557333 30.634667 192.7552 105.826133 240.827734 203.4432h-56.170667c-62.1568-99.067733-172.782933-169.3184-290.474667-169.3184-117.696 0-230.212267 70.250667-293.666133 169.3184H163.131733c48.8192-99.127467 137.984-175.133867 245.7472-204.8384zM513.4336 533.333333c84.821333 0 153.6-68.770133 153.6-153.6s-68.778667-153.6-153.6-153.6c-84.8384 0-153.6 68.770133-153.6 153.6s68.7616 153.6 153.6 153.6z" p-id="4189"></path><path d="M932.266667 727.466667a25.6 25.6 0 0 1 0 51.2c-101.7728 0-231.965867 30.9504-390.084267 93.179733a76.8 76.8 0 0 1-56.064 0.072533C326.656 809.642667 196.433067 778.666667 96 778.666667a25.6 25.6 0 0 1 0-51.2c107.793067 0 243.857067 32.362667 408.746667 96.759466a25.6 25.6 0 0 0 18.688-0.021333c163.584-64.384 299.690667-96.738133 408.832-96.738133z" p-id="4190"></path></svg>
